# xmcd
#
# Track frame offsets:
#	150
#	13576
#	25873
#	40349
#	55446
#	67474
#	79451
#	90639
#	106981
#	113912
#	127050
#	134986
#	146589
#	157515
#	167676
#	180638
#	189584
#	201237
#	214040
#
# Disc length: 3021 seconds
#
# Revision: 1
# Processed by: cddbd v1.5.2PL0 Copyright (c) Steve Scherf et al.
# Submitted via: audiograbber 1.83.01
#
DISCID=1d0bcb13
DTITLE=Lindsay Butler - Picks On Slim Dusty
DYEAR=1900
DGENRE=Country
TTITLE0=Leave Hin in the longyard
TTITLE1=road train blues
TTITLE2=walk a countrym mile
TTITLE3=Winter winds
TTITLE4=gum treees by the road
TTITLE5=the plains of pepparminarti
TTITLE6=home on the sunburnt plain
TTITLE7=camooweal
TTITLE8=trumby
TTITLE9=by a fire of gidgee coals
TTITLE10=i must have good terbacci when i smoke
TTITLE11=king bundawaal
TTITLE12=saddle boy
TTITLE13=closest thing to freedom
TTITLE14=you can never do wrong in a mothers eyes
TTITLE15=old bush mates of mine
TTITLE16=when the rain tumbles down in july
TTITLE17=lights on the hill
TTITLE18=when the currawongs come down
EXTD=
EXTT0=
EXTT1=
EXTT2=
EXTT3=
EXTT4=
EXTT5=
EXTT6=
EXTT7=
EXTT8=
EXTT9=
EXTT10=
EXTT11=
EXTT12=
EXTT13=
EXTT14=
EXTT15=
EXTT16=
EXTT17=
EXTT18=
PLAYORDER=
